# xmcd
#
# Track frame offsets:
#	150
#	20250
#	45183
#	64453
#	90769
#	112743
#	132189
#	153771
#	170889
#	190519
#	213213
#	235147
#	262753
#
# Disc length: 3794 seconds
#
# Revision: 1
# Processed by: cddbd v1.5.2PL0 Copyright (c) Steve Scherf et al.
# Submitted via: EZCDAudioConverter 8.0.2.1
#
DISCID=920ed00d
DTITLE=Hồ Trung Dũng - Hạnh Phúc
DYEAR=2011
DGENRE=World Pop
TTITLE0=Hồ Trung Dũng - Tiếng xưa ru đời
TTITLE1=Hồ Trung Dũng - Khi nắng chưa đầy
TTITLE2=Hồ Trung Dũng - Và em đến
TTITLE3=Hồ Trung Dũng - Để lại mùa đông
TTITLE4=Hồ Trung Dũng - Hoài giấc mơ người
TTITLE5=Hồ Trung Dũng - Nỗi nhớ muộn màng
TTITLE6=Hồ Trung Dũng, Thanh Ngọc - Đôi khi
TTITLE7=Hồ Trung Dũng - Thanh thang
TTITLE8=Hồ Trung Dũng - Phải chăng tôi yêu em
TTITLE9=Hồ Trung Dũng - Qua
TTITLE10=Hồ Trung Dũng, Hà Linh - Tình không muộn màng
TTITLE11=Hồ Trung Dũng - Đơn giản vậy thôi
TTITLE12=Hồ Trung Dũng - Never Too Late
EXTD=
EXTT0=
EXTT1=
EXTT2=
EXTT3=
EXTT4=
EXTT5=
EXTT6=
EXTT7=
EXTT8=
EXTT9=
EXTT10=
EXTT11=
EXTT12=
PLAYORDER=
